<?xml version="1.0" standalone="no"?>
<!DOCTYPE svg PUBLIC "-//W3C//DTD SVG 20010904//EN"
 "http://www.w3.org/TR/2001/REC-SVG-20010904/DTD/svg10.dtd">
<svg version="1.0" xmlns="http://www.w3.org/2000/svg"
 width="489.000000pt" height="483.000000pt" viewBox="0 0 489.000000 483.000000"
 preserveAspectRatio="xMidYMid meet">

<g transform="translate(0.000000,483.000000) scale(0.100000,-0.100000)"
fill="#000000" stroke="none">
<path d="M1958 4820 c-9 -6 -72 -22 -140 -36 -68 -14 -145 -36 -173 -49 -27
-13 -106 -47 -175 -75 -69 -28 -140 -59 -159 -68 -19 -9 -37 -17 -40 -16 -3 0
-12 -6 -19 -13 -7 -7 -19 -13 -27 -13 -7 0 -15 -3 -17 -7 -4 -11 -85 -63 -97
-63 -5 0 -29 -18 -52 -41 -56 -54 -85 -72 -101 -63 -7 4 -10 4 -6 0 7 -8 -106
-115 -152 -144 -14 -8 -30 -22 -36 -29 -72 -85 -108 -123 -120 -123 -8 0 -14
-7 -14 -15 0 -8 -4 -15 -8 -15 -4 0 -15 -12 -24 -27 -9 -16 -36 -49 -60 -75
-58 -62 -78 -87 -78 -96 0 -18 -52 -82 -62 -76 -6 4 -8 3 -5 -3 4 -5 -2 -19
-13 -30 -10 -12 -16 -24 -13 -27 4 -3 2 -6 -3 -6 -6 0 -16 -16 -24 -35 -8 -19
-18 -35 -22 -35 -5 0 -7 -4 -4 -9 8 -13 -4 -42 -15 -35 -5 3 -9 -2 -9 -10 0
-9 -4 -16 -10 -16 -5 0 -10 -9 -10 -20 0 -11 -6 -23 -14 -26 -8 -3 -12 -12
-10 -19 3 -7 -3 -33 -14 -57 -11 -23 -27 -61 -36 -83 -9 -21 -21 -42 -26 -45
-6 -3 -14 -26 -18 -51 -5 -24 -16 -60 -24 -79 -29 -65 -53 -146 -49 -164 3
-14 -29 -147 -40 -169 -6 -10 -13 -71 -15 -136 -3 -64 -9 -130 -13 -148 -12
-44 4 -390 23 -493 9 -47 16 -106 16 -132 0 -27 4 -48 9 -48 5 0 9 -14 9 -31
-1 -17 3 -34 8 -37 11 -8 44 -119 50 -172 3 -19 10 -39 17 -45 7 -5 19 -30 26
-55 7 -25 17 -54 21 -65 4 -11 14 -36 21 -55 7 -19 16 -38 21 -41 4 -3 28 -43
52 -90 24 -46 68 -124 99 -174 30 -49 53 -93 50 -97 -2 -5 2 -8 10 -8 15 0 42
-36 83 -111 12 -21 24 -36 26 -34 3 3 11 -6 18 -20 7 -13 20 -27 29 -30 9 -3
26 -20 39 -39 29 -43 98 -116 110 -116 4 0 37 -30 72 -67 35 -38 70 -67 76
-65 7 1 38 -22 69 -52 31 -30 66 -58 78 -62 12 -4 54 -27 92 -52 39 -26 99
-61 135 -80 36 -19 74 -42 85 -52 26 -22 118 -60 145 -60 12 0 19 -4 16 -8 -5
-8 54 -29 222 -78 50 -15 92 -31 92 -34 0 -4 6 -7 13 -8 46 -3 193 -26 197
-31 3 -3 23 -7 45 -7 22 -1 83 -7 135 -14 178 -23 470 -6 705 40 33 6 71 13
85 15 58 10 135 29 140 35 5 7 120 49 148 55 47 9 72 18 72 25 0 8 51 29 75
31 6 0 16 5 22 11 7 6 13 7 13 4 0 -4 7 0 16 8 8 9 21 16 28 16 7 0 40 18 72
40 33 22 67 40 77 40 17 0 28 7 66 41 10 9 40 31 67 49 60 41 166 122 217 167
21 19 43 31 50 27 7 -4 8 -3 4 2 -5 5 28 45 72 89 100 99 179 190 240 274 25
36 59 79 75 95 16 17 28 32 27 34 -5 5 39 88 57 108 17 19 92 163 92 177 0 4
8 16 18 27 9 11 17 24 17 28 0 4 5 21 11 37 6 17 17 48 23 70 7 22 26 76 43
120 17 44 34 89 38 100 18 48 30 107 40 200 6 55 16 118 21 140 6 22 12 96 14
165 3 69 7 151 10 183 2 31 0 79 -5 105 -5 26 -14 97 -20 157 -11 122 -12 129
-28 166 -6 15 -14 44 -17 65 -4 22 -20 77 -37 123 -17 45 -32 95 -34 111 -3
15 -14 45 -24 66 -11 21 -20 43 -20 49 0 5 -9 16 -19 22 -11 7 -22 26 -26 44
-6 28 -46 96 -63 109 -17 12 -82 111 -82 124 0 8 -8 17 -17 20 -10 3 -29 22
-42 41 -41 60 -231 244 -318 307 -46 33 -83 64 -83 68 0 5 -25 20 -56 35 -30
14 -76 42 -101 61 -24 19 -55 37 -69 40 -13 3 -24 10 -24 15 0 5 -9 9 -20 9
-22 0 -69 19 -86 35 -6 6 -31 17 -55 24 -127 39 -176 55 -194 66 -11 7 -40 15
-65 19 -25 3 -56 8 -70 10 -160 28 -431 48 -453 34 -7 -4 -32 -8 -57 -8 -53 0
-251 -27 -296 -41 -17 -5 -39 -9 -49 -9 -10 0 -26 -6 -34 -13 -22 -19 -161
-68 -172 -61 -5 3 -9 0 -9 -5 0 -6 -7 -11 -15 -11 -8 0 -15 -4 -15 -9 0 -7
-108 -61 -124 -61 -9 0 -90 -54 -94 -62 -2 -5 -10 -8 -18 -8 -8 0 -14 -4 -14
-10 0 -5 -15 -16 -32 -25 -18 -8 -61 -41 -95 -73 -123 -114 -153 -139 -158
-134 -3 3 -5 -2 -5 -11 0 -17 -40 -61 -78 -86 -11 -8 -19 -18 -17 -21 2 -3 -5
-13 -16 -20 -10 -8 -19 -20 -19 -28 0 -7 -7 -15 -15 -18 -8 -4 -15 -12 -15
-19 0 -7 -18 -31 -39 -53 -21 -22 -42 -49 -46 -61 -3 -12 -11 -21 -16 -21 -6
0 -7 -4 -4 -10 3 -5 2 -10 -3 -10 -6 0 -12 -11 -16 -23 -3 -13 -19 -39 -36
-58 -16 -19 -30 -37 -30 -41 0 -15 -83 -193 -94 -203 -6 -5 -13 -21 -15 -35
-1 -14 -7 -33 -12 -43 -6 -9 -7 -22 -4 -27 10 -16 32 -12 39 8 19 52 115 206
124 197 7 -6 42 35 42 49 0 17 100 126 116 126 8 0 18 10 23 23 12 30 74 88
136 126 28 18 50 35 49 39 0 8 59 52 101 74 78 40 115 62 115 70 0 4 7 8 16 8
9 0 28 7 42 15 28 16 82 38 95 39 4 1 11 7 15 13 9 15 112 52 161 58 19 3 50
12 69 21 19 9 46 14 60 11 15 -3 34 -2 42 3 70 36 523 28 575 -10 6 -4 31 -10
56 -12 26 -3 61 -13 79 -22 18 -9 39 -16 47 -16 7 0 13 -4 13 -10 0 -5 11 -10
24 -10 14 0 28 -4 31 -10 3 -5 15 -10 26 -10 25 0 149 -59 149 -71 0 -5 8 -9
18 -9 24 0 158 -95 154 -109 -1 -7 2 -10 7 -7 5 3 14 -1 21 -9 7 -8 18 -15 24
-15 11 -1 78 -60 106 -95 12 -15 12 -17 1 -10 -10 5 -12 4 -7 -3 4 -7 14 -12
22 -12 8 0 13 -4 9 -9 -3 -5 4 -12 14 -16 27 -8 98 -94 106 -128 4 -15 11 -25
15 -22 15 9 107 -137 102 -162 -2 -7 1 -13 6 -13 11 0 74 -114 70 -127 -3 -11
43 -147 53 -153 12 -9 39 -125 39 -173 0 -25 4 -47 10 -49 12 -4 17 -353 6
-448 -5 -41 -13 -81 -19 -87 -5 -7 -6 -13 -2 -13 4 0 2 -7 -5 -15 -6 -8 -10
-18 -7 -22 11 -18 -34 -186 -72 -268 -23 -48 -41 -93 -41 -100 0 -8 -7 -21
-16 -29 -8 -9 -13 -16 -10 -16 3 0 -11 -27 -30 -61 -18 -33 -34 -66 -34 -73 0
-12 -56 -95 -72 -106 -4 -3 -13 -18 -21 -33 -32 -61 -235 -282 -269 -293 -11
-3 -17 -8 -14 -11 8 -8 -115 -101 -151 -115 -18 -7 -33 -16 -33 -21 0 -4 -4
-5 -10 -2 -5 3 -10 -1 -10 -10 0 -15 -20 -26 -164 -91 -33 -14 -66 -33 -74
-40 -7 -8 -25 -16 -40 -19 -52 -11 -102 -28 -102 -35 0 -4 -10 -11 -22 -14
-92 -27 -133 -36 -149 -31 -11 4 -19 2 -19 -3 0 -5 -11 -9 -23 -9 -13 0 -54
-8 -91 -17 -85 -22 -421 -27 -476 -8 -19 6 -66 14 -105 17 -60 4 -114 16 -197
42 -10 3 -18 9 -18 13 0 5 -9 6 -20 3 -11 -3 -20 0 -20 6 0 6 -9 11 -20 11
-11 0 -20 4 -20 9 0 4 -11 6 -25 3 -14 -2 -25 0 -25 6 0 5 -12 13 -27 17 -15
3 -30 10 -33 15 -3 5 -21 12 -39 15 -41 7 -48 11 -185 94 -60 36 -131 87 -157
114 -27 26 -54 47 -62 47 -13 0 -31 18 -107 106 -14 16 -37 37 -51 46 -14 9
-43 42 -63 73 -21 30 -46 63 -55 73 -57 54 -174 258 -186 325 -4 20 -11 34
-16 31 -5 -3 -9 3 -9 13 0 10 -9 37 -20 58 -19 38 -39 96 -47 140 -2 10 -8 22
-13 25 -12 7 -39 113 -44 171 -6 73 -18 133 -28 146 -33 42 -22 707 12 748 5
6 8 13 8 18 -1 71 31 222 68 314 13 34 24 70 24 81 0 11 7 33 15 49 29 56 55
120 55 133 0 23 134 271 161 299 14 14 37 46 50 71 13 25 57 83 97 129 39 46
72 87 72 92 0 5 7 9 16 9 8 0 13 3 11 8 -2 4 15 23 38 42 23 19 53 50 66 67
13 18 28 33 33 33 5 0 21 13 36 29 16 16 42 37 59 47 17 10 31 22 31 26 0 13
43 48 59 48 9 0 27 12 40 25 12 14 27 23 31 20 4 -3 10 2 13 10 12 30 244 155
352 190 56 18 74 30 75 48 0 10 -82 8 -102 -3z"/>
</g>
</svg>
